inDegrees=no
num_controls=7
num_derivatives=13
num_iterations=99
num_multipliers=7
num_parameters=0
num_slacks=7
num_states=26
objective=5.574567
objective_accelerations=0.257506
objective_balance=0.028436
objective_effort=0.365855
objective_height=4.878348
objective_ligament=0.044422
solver_duration=853.144516
status=Solve_Succeeded
success=true
DataType=double
version=3
OpenSimVersion=4.4-2022-07-23-0e9fedc
endheader
time	/jointset/ground_pelvis/pelvis_tilt/value	/jointset/ground_pelvis/pelvis_tx/value	/jointset/ground_pelvis/pelvis_ty/value	/jointset/hip_r/hip_flexion_r/value	/jointset/hip_r/hip_adduction_r/value	/jointset/hip_r/hip_rotation_r/value	/jointset/back/lumbar_extension/value	/jointset/patellofemoral_r/patellar_flexion_r/value	/jointset/knee_r/knee_flexion_r/value	/jointset/knee_r/knee_adduction_r/value	/jointset/knee_r/knee_rotation_r/value	/jointset/ankle_r/ankle_angle_r/value	/jointset/subtalar_r/subtalar_angle_r/value	/jointset/ground_pelvis/pelvis_tilt/speed	/jointset/ground_pelvis/pelvis_tx/speed	/jointset/ground_pelvis/pelvis_ty/speed	/jointset/hip_r/hip_flexion_r/speed	/jointset/hip_r/hip_adduction_r/speed	/jointset/hip_r/hip_rotation_r/speed	/jointset/back/lumbar_extension/speed	/jointset/patellofemoral_r/patellar_flexion_r/speed	/jointset/knee_r/knee_flexion_r/speed	/jointset/knee_r/knee_adduction_r/speed	/jointset/knee_r/knee_rotation_r/speed	/jointset/ankle_r/ankle_angle_r/speed	/jointset/subtalar_r/subtalar_angle_r/speed	/forceset/tau_hip_flexion_r	/forceset/tau_hip_adduction_r	/forceset/tau_hip_rotation_r	/forceset/tau_knee_flexion_r	/forceset/tau_ankle_angle_r	/forceset/tau_subtalar_angle_r	/forceset/tau_lumbar_extension	lambda_cid13_p0	lambda_cid14_p0	lambda_cid14_p1	lambda_cid14_p2	lambda_cid14_p3	lambda_cid14_p4	lambda_cid14_p5	/jointset/ground_pelvis/pelvis_tilt/accel	/jointset/ground_pelvis/pelvis_tx/accel	/jointset/ground_pelvis/pelvis_ty/accel	/jointset/hip_r/hip_flexion_r/accel	/jointset/hip_r/hip_adduction_r/accel	/jointset/hip_r/hip_rotation_r/accel	/jointset/back/lumbar_extension/accel	/jointset/patellofemoral_r/patellar_flexion_r/accel	/jointset/knee_r/knee_flexion_r/accel	/jointset/knee_r/knee_adduction_r/accel	/jointset/knee_r/knee_rotation_r/accel	/jointset/ankle_r/ankle_angle_r/accel	/jointset/subtalar_r/subtalar_angle_r/accel	gamma_cid13_p0	gamma_cid14_p0	gamma_cid14_p1	gamma_cid14_p2	gamma_cid14_p3	gamma_cid14_p4	gamma_cid14_p5
0.5	-0.02629101762079788	0.08289135651703096	0.8923014684729662	0.5051307141718132	-0.2294770506984822	-0.153987621434163	-0.2989711349154866	0.5710575877265019	0.5710575877265178	0.05991502281097847	0.1745197936943647	0.2585214801961167	0.05637705567819007	-0.06159330357250312	-0.02482673000238844	-0.2116441674082099	0.8997221668804201	-0.00738691557876517	0.2217632806705519	-0.6030503854128464	1.365831895832045	1.365831895832056	-0.2459856877930789	5.814808474635699e-05	0.6092086581663968	0.1644362482428168	-0.02513456122203417	-0.01640357180051144	0.003831058808595355	-0.3200807507658506	0.04375850972243227	-0.01688828653906272	0.1005643472294751	-37.85933814538478	-28.86862414819024	-8.115752883054933	-3.127542945744107	6.412547868469781	-677.3785654622914	56.38696482134998	-0.03381553311734645	0.1187194842088402	-0.2564947136404899	-0.5232093729743337	-0.04513315394090518	-0.4596008814497458	0.9607323382508476	-0.8169117488102455	-0.816911748810228	0.3096619961617846	-0.01114552148559053	-0.365913922417104	-0.02463020948021066	-9.452347392436528e-08	-7.198560216305471e-08	8.240962911611013e-07	-7.235181517035713e-07	-4.742824343470149e-08	-6.525105948615514e-08	9.111218460907684e-07
0.51	-0.02690886666866197	0.08264909346604025	0.8901726104198691	0.514100684603892	-0.2295537038655088	-0.1517931016665806	-0.3049523914568879	0.584673054136912	0.584673054136948	0.05747193043056925	0.1745204140441892	0.2645942543628137	0.05801918617700774	-0.06197307922641757	-0.02361963108699232	-0.2140793278601693	0.8941395980479488	-0.007939391324879278	0.2171203227871843	-0.5931103299779832	1.357052680119959	1.357052680119938	-0.2426242762246528	6.756862499094569e-05	0.6052611926665413	0.1639696248411498	-0.02888147530792317	-0.01460683450429028	0.004289636608136046	-0.3223429159915829	0.03895554088232977	-0.01593126577636195	0.1042644800626575	-37.27102667677642	-30.46628077067067	-8.067187047621688	-3.035533407506505	6.997547468216109	-679.4440119185355	56.26709241142198	-0.03955182143271418	0.1226335745387566	-0.2298220811379987	-0.5956365677308688	-0.05971135567604351	-0.469824194078176	1.024231079316961	-0.9397141757832165	-0.9397141757881603	0.3507196840193547	0.007118101097338458	-0.4219264766903338	-0.06067332977946962	-8.790375897325413e-08	-6.943704035190114e-08	7.513386468538296e-07	-7.046007944399584e-07	-4.171082393335712e-08	-6.111359820592128e-08	8.611222290226428e-07
0.52	-0.02753041212102101	0.08241908710007027	0.8880208416882185	0.5230108581617874	-0.2296357631041173	-0.1496456476683043	-0.3108315296572967	0.5981944708514744	0.598194470851579	0.05506271995517654	0.1745211550514112	0.2706250011519293	0.05965605145695649	-0.06233258447653095	-0.02237539299824606	-0.2162263031188382	0.8877627920415666	-0.008468129900187417	0.2123501268118971	-0.5826267172146208	1.347021956672852	1.347021956672799	-0.2392093067827716	8.227953793641415e-05	0.6008031826498677	0.1633832044686982	-0.03262838939388506	-0.01281009720805609	0.004748214408574365	-0.3246050812173673	0.03415257204222321	-0.01497424501366293	0.1079646128957794	-36.65941041637897	-32.07217926873934	-8.016071282889992	-2.948491764487447	7.579121844084808	-681.6490960030521	56.20511375173008	-0.0297614523573426	0.126147318879052	-0.1988576749824022	-0.6820568077565591	-0.04038571977971888	-0.4850484998337251	1.069443803950646	-1.067213295814721	-1.067213295814721	0.3203735708528466	-0.01008744694542323	-0.4680228257805577	-0.04858960363709432	-8.138916285212436e-08	-6.665848664568827e-08	6.793675447204943e-07	-6.827146228502248e-07	-3.620185796227021e-08	-5.656629983397074e-08	8.085531302588599e-07
0.53	-0.02815544208076662	0.08220168620185553	0.8858490641309691	0.5318533879436026	-0.2297229723500465	-0.1475463076828841	-0.3166032374775027	0.6116094634123695	0.6116094634123772	0.05268794997043586	0.1745219198454497	0.2766086748068103	0.06128646625320625	-0.06266850914031118	-0.02110056411841651	-0.2180789622398449	0.8806166743856345	-0.008971915819522568	0.2075053467126588	-0.5716365336201723	1.335779313034303	1.335779313034267	-0.2357300710686129	7.229554032395951e-05	0.5958500934059617	0.1626754725236156	-0.03622688810216124	-0.01116466539355002	0.005209728166685774	-0.3269599240343565	0.02956727037225269	-0.01411192230544705	0.1115385600545987	-36.02713327212108	-33.6103074611797	-7.998883434557778	-2.850710301841248	8.139224350376868	-683.7924775656782	56.1100618659922	-0.03478004200565231	0.1287773902170189	-0.1709439525119051	-0.749870005017527	-0.05516766771426048	-0.4861860275100965	1.125552617997455	-1.182360675126142	-1.182360675123619	0.3639370462420339	0.003681124250866898	-0.5211830764013372	-0.08548592956636378	-7.522167646632703e-08	-6.365302337468329e-08	6.122805628931463e-07	-6.586723923118215e-07	-3.130104109488846e-08	-5.164639526889764e-08	7.566174408626549e-07
0.54	-0.02878368570084585	0.08199715893597544	0.8836602651981385	0.540620660396767	-0.2298151779830771	-0.1454958141509828	-0.3222626940656017	0.6249061153814083	0.624906115381325	0.05034842003774097	0.174522611799661	0.2825403713487131	0.06290907954208289	-0.06297531654881618	-0.01980066653131355	-0.2196305782350472	0.8727113263094436	-0.009467407327022613	0.2025808361117751	-0.5601764707935204	1.323353838305711	1.323353838305693	-0.2321612963726664	6.771155950520245e-05	0.5904077600538311	0.1618229029936276	-0.0398253868105393	-0.009519233579064972	0.005671241925345386	-0.3293147668513897	0.02498196870226882	-0.01324959959727514	0.1151125072133416	-35.37684629527914	-35.15685057383583	-7.979468445509634	-2.757511140295942	8.697122421808185	-686.0762149869976	56.06984255341681	-0.02393800130247552	0.1311610603338726	-0.1386490498215077	-0.8339028918083647	-0.03872683741270572	-0.500994600162818	1.163419650391265	-1.303779513823373	-1.30377951382339	0.3382813672104387	-0.009007443586716405	-0.5658716474253693	-0.07755712061812714	-6.943822638345069e-08	-6.039651122348277e-08	5.5059728863838e-07	-6.322447348514853e-07	-2.707307004437199e-08	-4.63142455539868e-08	7.053825448093022e-07
0.55	-0.02941483674863012	0.08180572379703757	0.8814574672024806	0.5493052002162148	-0.2299122472922704	-0.1434948230435728	-0.3278053499459526	0.6380727601778616	0.6380727601778293	0.04804495760354773	0.1745231759633172	0.2884152618606821	0.06452249961216178	-0.0632481958833441	-0.01848512490129576	-0.220877511231884	0.8640785514403588	-0.009944384598529031	0.1976086228826741	-0.5482909707121512	1.309791397370462	1.309791397370499	-0.2285178475070599	4.728856257308738e-05	0.584492748986544	0.1608366073644104	-0.04327442598491277	-0.00799369031266604	0.006140434391018658	-0.3317052886487418	0.02055255344586305	-0.0124765825535626	0.1185457852113573	-34.71115009508003	-36.65316764354481	-7.995124050056209	-2.652918602476152	9.254445894807004	-688.2537501164543	55.98744867102888	-0.0279646560984376	0.1319312144552028	-0.1099976560502449	-0.8956844203367121	-0.05193903961715745	-0.496750065587442	1.21067537158557	-1.41002166888852	-1.410021668880356	0.3794108096111775	0.001666454567466572	-0.615964853674933	-0.1128332539982729	-6.372222483068763e-08	-5.702096977663937e-08	4.892179897161821e-07	-6.042937669840503e-07	-2.296289655549693e-08	-4.080069815323894e-08	6.528869820189215e-07
0.5600000000000001	-0.03004851694104316	0.08162748017442366	0.8792437434305667	0.5578998683598049	-0.2300140375476598	-0.1415438371447367	-0.3332272387885737	0.6510982715078489	0.651098271507863	0.04577833649071293	0.1745235811335083	0.2942286724585211	0.06612532323196632	-0.06348114548072924	-0.0171623632665227	-0.2218157334862528	0.8547369911361226	-0.01041159657395117	0.1925797944014318	-0.5360230632477654	1.295127145014703	1.295127145014795	-0.2247930321064373	3.591285819339512e-05	0.5781117772274804	0.1597036129381986	-0.0467234651594096	-0.006468147046288501	0.006609626857112775	-0.3340958104461316	0.01612313818944615	-0.01170356550989326	0.1219790632092762	-34.0326091875905	-38.15804659050865	-8.008882572250787	-2.552508086299084	9.811026484047838	-690.5717637673856	55.9564520328117	-0.01595205387406428	0.13260506128502	-0.07690690132788723	-0.9756599788386445	-0.03677377819585821	-0.5123176505911121	1.23990112699457	-1.524141797925632	-1.52414179792563	0.3545546742136855	-0.007197985076273778	-0.659063785780582	-0.1068968800170039	-5.808716151406051e-08	-5.350259317502453e-08	4.282034611930663e-07	-5.745148266280967e-07	-1.899408014059154e-08	-3.506947352948666e-08	5.98878619144107e-07
0.5700000000000001	-0.03068432499396059	0.08146249337086796	0.8770221881650581	0.5663976725295449	-0.2301203969183849	-0.1396432849994507	-0.3385246335589377	0.6639717870781827	0.6639717870781737	0.04354930430348907	0.1745237980396825	0.2999760365130689	0.06771615730028156	-0.06367245964290442	-0.01583420992726878	-0.2224429022216066	0.8447110810469535	-0.01085799366658305	0.187526412045964	-0.5234024793559545	1.279405123816336	1.279405123816393	-0.2210000694845618	9.027534209551913e-06	0.5712902437885689	0.1584393496602865	-0.04998246381434249	-0.005120017983028245	0.007088752238832859	-0.3366191284107323	0.01204049553538558	-0.01101207832696356	0.1252493819734556	-33.34370289006006	-39.5488728085992	-8.042364706016004	-2.444058323887175	10.29782786352167	-692.7697383706162	55.91709757792807	-0.01952609928897657	0.1330352481296404	-0.04776561604801322	-1.032976915699841	-0.04829761746577094	-0.502568509342496	1.281148740585408	-1.621848086435192	-1.621848086440683	0.3936878146236448	-0.0002897463955291383	-0.7043237485824277	-0.1397729341773663	-5.321421974425023e-08	-4.973135901512476e-08	3.808238197223276e-07	-5.422680286533755e-07	-1.643682397152553e-08	-2.954786313634547e-08	5.509672037487941e-07
0.58	-0.03132180718884807	0.08131081105628135	0.8747959324609134	0.5747918335200587	-0.2302311652485339	-0.1377934106740008	-0.3436942201463202	0.6766829592754052	0.6766829592753598	0.04135860589420033	0.1745237749045724	0.3056530601081007	0.0692936323593213	-0.06381597388111825	-0.01450146547269838	-0.222755821213433	0.8340083552879961	-0.01129338846601876	0.1824442304377984	-0.5104614266517172	1.262658470392252	1.262658470392273	-0.2171262765247354	-1.209540321937092e-05	0.5640436853242242	0.1570318110824129	-0.05324146246934719	-0.0037718889196973	0.007567877620612899	-0.3391424463753476	0.007957852881348867	-0.01032059114393034	0.1285197007375623	-32.64684604441717	-40.94842417532106	-8.074200371323855	-2.339496963130089	10.78504668702745	-695.1093622552502	55.9256053522415	-0.006392069081898112	0.133523284348348	-0.01405695262237951	-1.111023112796298	-0.03457331955665899	-0.5180775011306825	1.30399488947988	-1.729068243069311	-1.729068243069302	0.3707207418038801	-0.006045507765336421	-0.7440687908671828	-0.1355519400092852	-4.933380836099214e-08	-4.56308219886214e-08	3.512012404593358e-07	-5.068072765704925e-07	-1.571787882029681e-08	-2.429923871795364e-08	5.1099599902446e-07
